<?xml version="1.0" encoding="utf-8" standalone="no"?>
<!DOCTYPE svg PUBLIC "-//W3C//DTD SVG 1.1//EN" "http://www.w3.org/Graphics/SVG/1.1/DTD/svg11-flat-20030114.dtd">
<!-- Created by SVGDeveloper 1.0 -->
<svg width="1135" height="843" version="1.1" xmlns="http://www.w3.org/2000/svg" xmlns:xlink="http://www.w3.org/1999/xlink" fill="none" stroke="#000000">
<path d="M626 178L335 206L107 178L93 241L75 265L62 322L58 351L175 350L177 502L180 625L182 776L6 774L4 818L8 823L114 822L117 837L496 836L906 834L908 544L906 286L906 176L1126 174L1126 4L682 6L682 48L626 49L626 178Z" fill="none" fill-opacity="0" stroke="#000000" />
<path d="M1008 20L1008 38L1069 37L1070 21L1033 21L1033 27L1024 27L1024 20C1024 20 1009 20 1008 20Z" fill="#CCCCCC" fill-opacity="1" stroke="#000000" />
<path d="M1087 45L1116 45L1116 29L1117 26L1117 22L1116 19L1114 16L1111 14L1107 13L1103 13L1099 14L1096 16L1094 19L1094 22L1087 22L1087 45Z" fill="#CCCCCC" fill-opacity="1" stroke="#000000" />
<path d="M1077 34L1078 65L1071 65L1071 68L1060 68L1060 38L1069 37L1070 34L1077 34Z" fill="#CCCCCC" fill-opacity="1" stroke="#000000" />
<path d="M1084 63L1084 81L1118 81L1118 63L1084 63Z" fill="#CCCCCC" fill-opacity="1" stroke="#000000" />
<path d="M1084 87L1094 87L1094 107L1084 107L1084 87Z" fill="none" fill-opacity="0" stroke="#000000" />
<path d="M1092 111L1091 123L1119 123L1119 111L1092 111Z" fill="none" fill-opacity="0" stroke="#000000" />
<path d="M1020 38L1020 49L1029 49L1033 51L1035 53L1035 55L1035 68L1034 70L889 71L889 88L887 91L868 91L867 88L867 84L858 84L858 93L826 93L822 94L819 97L817 99L815 102L815 104L815 128L794 128L793 131L786 131L786 144L816 145L816 157L815 159C813 160 811 160 811 160L646 160L647 278L647 280L646 281L644 283L642 284L640 285C639 285 599 285 599 285L597 283L596 273L596 272L591 272L590 284L589 285L586 286C585 286 520 286 520 286L518 284L516 281L515 279L514 262L516 260L522 260C523 260 523 256 523 256L519 256L517 255L515 254L515 228L517 226L524 226L524 222C523 222 523 220 523 220L480 220L481 269L393 270L388 270L386 272L386 281L388 285L391 286L397 287L403 286L408 283L409 280L409 271L428 271L428 281L429 283L431 285L434 287L501 287L504 285L506 283L508 280L509 230L507 227L505 226L481 226" fill="none" fill-opacity="0" stroke="#000000" />
<path d="M1041 38L1041 69L1042 71L1084 71L1084 159L1075 159L1075 88L1074 84L1071 82L1067 80L906 80L902 81L900 83L898 86L898 89L898 113L899 116L901 119L903 121C904 122 948 121 948 121L948 108L1050 107L1050 145L948 144L948 122L948 119" fill="none" fill-opacity="0" stroke="#000000" />
<path d="M948 107L1050 106L1051 145L947 144L947 166L1051 165L1051 160L1072 160L1071 92L1050 92L1050 85L947 85L948 107Z" fill="none" fill-opacity="0" stroke="#000000" />
<path d="M946 160L942 160L942 131L904 131L901 133L898 136L898 139L899 387L899 662L899 829L899 831L890 831L891 828L888 825L530 825L526 827L524 829L523 833L523 835L505 835L504 832L503 829L478 829L478 834L494 833C496 834 497 835 497 835" fill="none" fill-opacity="0" stroke="#000000" />
<path d="M819 129L819 106L820 102L822 100L826 97L884 97C886 97 889 99 889 99L889 102L889 159L885 161L828 160L826 158L826 145L816 145" fill="none" fill-opacity="0" stroke="#000000" />
<path d="M885 167L868 167L864 169L864 179L859 179L858 170L857 167L815 167L813 170L813 190L808 190L808 170L807 168L803 166L728 166L726 168L724 170L724 189L737 189L737 194L725 194L724 233L726 235C728 236 766 237 766 237L766 242L720 242L720 170L719 167L715 166L660 167L657 167L655 171L656 278L657 281L659 284L662 286L682 286L686 284L689 281L692 276C692 276 693 273 694 273C694 272 699 269 699 269L701 267L707 267L707 273L702 274L700 276L698 279L698 283L700 286L724 286L727 285L728 280L727 277L724 275L719 274L719 269L724 269C727 269 729 271 729 271L732 274L735 278L736 281L740 283L744 285C746 285 882 285 882 285L886 282L888 279L888 276L889 170L885 167Z" fill="none" fill-opacity="0" stroke="#000000" />
<path d="M882 294L666 294L662 296L659 299L658 304L658 346L660 348L662 350L696 350L696 360L692 360L692 357L689 355L661 355L658 359L658 423L663 428L730 428L733 425L733 414L742 414L742 424L745 428L807 428L811 425L810 415L807 413L785 412L785 408L805 408C807 407 809 405 809 405L809 393L806 390L785 390L785 385L845 385L845 369L846 366L886 365L889 362L890 359L889 301L885 296L882 294Z" fill="none" fill-opacity="0" stroke="#000000" />
<path d="M853 371L885 370L889 371L889 374L889 421L886 424L882 427L823 427L820 423L820 400L824 399L825 392L853 392L853 373L853 371ZM864 372L864 379L854 379" fill="none" fill-opacity="0" stroke="#000000" />
<path d="M884 436L665 437L661 440L659 442L658 447C658 447 659 519 658 519L889 519L892 517L892 443L889 439L884 436Z" fill="none" fill-opacity="0" stroke="#000000" />
<path d="M659 526L734 525L734 532L877 533L877 526L890 526L891 528L892 607L890 609L885 612L851 612C849 611 848 609 848 609L846 607L846 598L839 598L839 607L838 609L836 611L832 613L708 613L706 611L704 609L703 607L703 597L696 597L696 607L693 610L690 612C688 613 665 613 665 613L662 611L660 609L659 607L659 578L676 578L676 569L660 569L659 566L659 526ZM659 576L658 571" fill="none" fill-opacity="0" stroke="#000000" />
<path d="M659 566L659 578" fill="none" fill-opacity="0" stroke="#000000" />
<path d="M881 622L813 622L810 624L807 627L806 630L806 640L805 643L795 643L795 632L794 628L791 625L788 623C786 622 714 622 714 622L711 623L708 626L707 630L707 647L698 647L698 630L696 627L695 624L690 623L666 622L661 624L659 627L658 632L659 745L662 747L705 747L705 751L661 751L658 753L657 755L657 809L659 812L664 815L667 816L667 806L698 806L727 806C728 807 754 806 754 807C755 808 755 809 755 809L771 809L771 753L872 754L872 742L881 742L881 751L887 752L890 748L890 667L877 667L877 659L890 659L889 630L887 626L881 622Z" fill="none" fill-opacity="0" stroke="#000000" />
<path d="M763 622L763 656L762 659L757 659L757 663L761 663L763 665L763 706" fill="none" fill-opacity="0" stroke="#000000" />
<path d="M767 623L767 708" fill="none" fill-opacity="0" stroke="#000000" />
<path d="M838 809L836 812L833 815L778 815L775 812L775 760L836 759L838 809Z" fill="none" fill-opacity="0" stroke="#000000" />
<path d="M860 770L860 759L848 759L843 762L841 767L841 772L842 784L845 786L887 786L889 783L890 762L885 758L874 758L874 769L860 770Z" fill="none" fill-opacity="0" stroke="#000000" />
<path d="M887 793L889 796L889 808L889 811L884 814L846 814L843 813L842 810L842 797L845 793C845 793 888 793 887 793Z" fill="none" fill-opacity="0" stroke="#000000" />
<path d="M379 328L378.5 328L370 328L367 324L366 304L369 298C372 296 398 297 398 297C402 298 404 303 404 303L404 322L411 322L411 304L412 300L416 297L440 296L446 298C446 298 450 304 450 305L450 322L456 322L456 304L459 300L463 296L498 297L504 298L509 306L508 318L506 321L478 322L479 328L503 328L506 330L508 332L508 390L508 392C505 393 462 394 462 394L461 402L506 402C508 404 509 405 509 405L508 422L506 425L504 430L418 432L416 430L414 426L415 414L409 414L407 427L406 430C404 430 371 430 371 430L367 426C367 426 363 418 364 418C365 418 366 348 366 348L367 342L371 338L382 338L383 333L380 333C380 333 378 328 379 328Z" fill="none" fill-opacity="0" stroke="#000000" />
<path d="M596 296L522 296L519 297L517 299L515 301L515 302L515 392L515 395L515 397L516 398L521 398L521 400L526 400L526 403L518 403L515 404L515 406L515 423L516 426C517 427 518 428 518 428L520 429C521 430 567 430 567 430L570 429L571 426L571 415L583 415L583 426L584 428L586 429L588 430L642 429L645 427L647 425L648 422L649 386L648 384L646 383L643 383L638 383L638 378L646 378L648 377L649 375L649 367L648 364C646 364 631 364 631 364L629 365L629 367L629 373L624 373L624 367L624 365L622 364L608 364L606 366L606 380L587 380L587 376L597 376L598 375L600 373L601 301L600 297L599 296L596 296Z" fill="none" fill-opacity="0" stroke="#000000" />
<path d="M606 299L606 351L607 353L610 355L645 354L647 353L649 351L649 303L649 300L647 298C648 298 645 296 645 296L642 296L610 296L608 297L606 299Z" fill="none" fill-opacity="0" stroke="#000000" />
<path d="M640 816L532 815L531 813L531 809L534 807L537 804L541 800L544 795L545 790L546 785L547 781L547 771L546 768L545 764L543 760L541 757L539 754L537 752L537 749L538 747L621 746L622 815L626 815L625 695L649 688L649 629L647 626L645 623L641 622L596 622L594 623L593 626L593 640L586 640L586 649L584 649L584 625L583 623L581 622L556 622L556 624L548 624L548 627L543 627L543 632L538 632L537 739L538 741L541 743L541 746" fill="none" fill-opacity="0" stroke="#000000" />
<path d="M541 746L541 743L622 742L622 696L537 717L537 714L649 685L649 659C649 659 629 659 628 659L628 656L649 656L649 809L648 811L646 813C645 814 643 815 643 815L640 816" fill="none" fill-opacity="0" stroke="#000000" />
<path d="M556 655L538 655L538 658L556 658L556 655Z" fill="none" fill-opacity="0" stroke="#000000" />
<path d="M640 438L521 439L518 440L517 442L517 533L518 536L521 537L642 537L645 536L646 535L649 531L649 494L639 494L633 492L629 489L625 485L622 481L620 475L620 470L619 468L616 467L614 466C614 466 612 465 612 466C611 466 610 467 610 467L607 470L603 472L598 474L594 475L591 475L589 475L593 479C593 479 595 481 595 482L597 487L598 491L599 494L599 503L600 506L601 510L603 514C603 514 605 517 605 518C605 519 607 523 607 523L607 527L606 529L606 532L604 534L601 536L597 536L598 534L601 533L604 528L604 525L602 518L600 513L598 509L597 505L596 496L596 490L594 485L592 482L588 478L582 475L576 472L569 472L564 476L562 478L562 481L562 486L563 490L564 497L564 504L562 510L560 513L556 516L551 518L548 519L547 523L550 526L554 528L558 531L561 536L559 536L557 534L554 531L551 530L548 528L545 526L544 520L546 517L551 515L556 512L560 508L561 494L560 488L559 486L559 478L562 473L569 469L576 469L578 469L576 466L575 464L573 463L571 462L568 461L562 461L559 462L557 465L555 467L553 469C553 469 550 470 550 471C549 471 547 472 547 472L544 473L532 474L528 473L524 473L518 473L518 470L527 470L533 471L543 470L549 468L553 464L556 461L561 458L570 458L575 460L578 462L584 462L590 458L591 455L591 453C591 452 592 450 592 450L594 447L598 445L602 446L604 445L606 443L607 439L610 439L610 441L610 444L608 446L606 448L604 448L596 449L595 451L595 453L594 455L594 459L593 464L592 465L592 466L592 468L594 470L596 470C597 470 599 470 599 470L601 470L604 468L608 465L610 463L615 463C615 463 618 463 618 464C619 465 621 466 621 466L623 470L623 474L625 479L628 484L633 489L639 490L644 491L647 491C647 491 648 491 649 491L649 492L649 446L648 442L645 440L644 439L640 438Z" fill="none" fill-opacity="0" stroke="#000000" />
<path d="M649 607L649 550L648 547L646 545L644 543L642 543L568 543L568 545L560 545L560 543L519 543L519 545L461 546L461 543L428 543L425 545L425 547L425 563L422 563L422 550L420 548L419 547L417 546L377 546L374 547L371 549C371 549 370 551 370 552L369 555L371 557L372 558L379 558L379 565L371 565L371 606L372 608L373 610L375 611L377 612L478 613L478 610L485 610L485 606L481 606L481 590L484 590" fill="none" fill-opacity="0" stroke="#000000" />
<path d="M649 486L649 499" fill="none" fill-opacity="0" stroke="#000000" />
<path d="M484 606L484 587L484 583L486 583L486 580L487 579L489 577L491 575L493 575L503 575L503 583L501 583L501 588L497 588L497 610L501 610L501 614L524 614L524 610L529 610L529 588L524 588L524 583L522 583L522 575L532 575L535 576L536 577L538 579L540 581L541 583L541 609L548 609L548 614L558 614L558 609L558 604L562 604L562 613L565 613L573 613L573 604L565 604L565 612L569 612L569 605" fill="none" fill-opacity="0" stroke="#000000" />
<path d="M559 613L569 613L569 604L573 604L573 613L589 613L596 543L599 543L592 613L643 613L646 611L648 609L649 607" fill="none" fill-opacity="0" stroke="#000000" />
<path d="M604 613L558 613" fill="none" fill-opacity="0" stroke="#000000" />
<path d="M524 609L519 603L519 594L525 588L524 586L518 592L514 592L514 583L511 583L511 592L508 592L501 586L500 589L506 594L506 603L500 609L502 611L508 605L517 605L523 611" fill="none" fill-opacity="0" stroke="#000000" />
<path d="M509 595L509 601L516 601L516 595L509 595Z" fill="#666666" fill-opacity="1" stroke="#000000" />
<path d="M511 534L511 444L510 441C508 440 506 439 506 439L373 440L370 442L368 445L366 449L368 530L371 533L376 537L506 537L509 537L511 534Z" fill="none" fill-opacity="0" stroke="#000000" />
<path d="M425 440L419 497L368 511L368 515L418 501L416 536L420 536L421 510L461 520L463 536L467 536L462 489L511 476L511 473L483 479L427 464L429 441" fill="none" fill-opacity="0" stroke="#000000" />
<path d="M426 467L423 496L478 481C478 481 426 468 426 467Z" fill="none" fill-opacity="0" stroke="#000000" />
<path d="M429 473L427 486L426 488L428 490L437 482C437 482 429 474 429 473Z" fill="none" fill-opacity="0" stroke="#000000" />
<path d="M427 477L436 482L430 480C430 480 427 479 427 479L427 482" fill="none" fill-opacity="0" stroke="#000000" />
<path d="M427 477L436 482L430 480C430 480 427 479 427 479L427 482M430 482" fill="none" fill-opacity="0" stroke="#000000" />
<path d="M427 477L436 482L430 480C430 480 427 479 427 479L427 482M430 482M428 484" fill="none" fill-opacity="0" stroke="#000000" />
<path d="M427 477L436 482L430 480C430 480 427 479 427 479L427 482M430 482M428 484M429 483" fill="none" fill-opacity="0" stroke="#000000" />
<path d="M427 483L433 481L427 479C427 479 428 483 427 483Z" fill="none" fill-opacity="1" stroke="#000000" />
<path d="M422 500L422 505L460 516L458 489L422 500Z" fill="none" fill-opacity="0" stroke="#000000" />
<path d="M422 500L422 505L460 516L458 489L422 500ZM447 502" fill="none" fill-opacity="0" stroke="#000000" />
<path d="M454 494L446 503L454 511C456 512 458 510 458 510L456 497C456 497 453 494 454 494Z" fill="none" fill-opacity="0" stroke="#000000" />
<path d="M446 502L454 502L456 499L457 505L453 505C453 505 444 501 446 502Z" fill="#666666" fill-opacity="1" stroke="#000000" />
<path d="M492 536L492 533L496 533L496 536C496 536 493 536 492 536Z" fill="#666666" fill-opacity="1" stroke="#000000" />
<path d="M501 627L511 627L509 667L497 667L497 632L501 632C501 632 501 626 501 627Z" fill="none" fill-opacity="0" stroke="#000000" />
<path d="M510 629L514 629L515 627L524 627L524 632L529 632L528 739L522 739L522 744L501 744L501 739L496 739L497 668L528 668L528 671L498 670" fill="none" fill-opacity="0" stroke="#000000" />
<path d="M509 743L510 718L497 718L497 715L510 715L510 702L506 699L504 695L497 695L497 692L505 692L507 687L510 686L510 677L507 674L504 672L504 667L506 663L509 660L515 661L518 662L520 665L520 672L517 675L514 676L514 685L517 687C517 687 519 688 519 689C519 690 519 694 519 694L518 698L515 700L515 715L528 715L528 718L515 718L514 743" fill="none" fill-opacity="0" stroke="#000000" />
<path d="M528 691L519 691L519 695L527 695" fill="none" fill-opacity="0" stroke="#000000" />
<path d="M515 701L511 701L507 699L504 695L505 692L507 687L511 685L514 685L515 629" fill="none" fill-opacity="0" stroke="#000000" />
<path d="M514 677L510 677L510 670L511 666C512 666 514 668 514 668L513 670" fill="none" fill-opacity="0" stroke="#000000" />
<path d="M514 677L510 677L510 670L511 666C512 666 514 668 514 668L513 670M514 695" fill="none" fill-opacity="0" stroke="#000000" />
<path d="M512 695L510 692C511 691 513 691 513 691L514 693" fill="none" fill-opacity="0" stroke="#000000" />
<path d="M512 695L510 692C511 691 513 691 513 691L514 693C514 693 511 695 512 695ZM513 693" fill="none" fill-opacity="0" stroke="#000000" />
<path d="M487 663L488 631L482 631L482 627L477 627L477 623L336 621L334 624L334 648L329 648L329 625L327 622C325 621 255 623 255 623L255 633L227 634L227 629L226 626L205 625L201 627L200 631L200 719L202 722L215 722L215 719L205 719C205 720 205 721 205 721" fill="none" fill-opacity="0" stroke="#000000" />
<path d="M205 722L205 719L215 719L215 716L244 716C245 716 245 708 245 708L200 709L200 712L244 711" fill="none" fill-opacity="0" stroke="#000000" />
<path d="M215 718L215 722L218 722L218 726L221 726L220 717C220 717 214 719 215 718Z" fill="none" fill-opacity="0" stroke="#000000" />
<path d="M218 717L219 722L220 726L220 731L204 731L201 733L200 735L200 811L202 814L204 817C205 817 208 819 208 819L226 819L229 817L229 815L230 801L240 801L240 816L244 819L266 819L271 816L273 813L274 807L273 804L270 792L270 784L272 778C272 778 275 773 277 773C278 772 295 767 295 767L308 764L317 763C317 763 322 766 323 766C324 766 329 771 329 772L339 809L341 814L343 817C343 817 346 818 347 818L407 817L410 815L410 813L400 806L401 803L406 804C408 804 408 802 408 802L406 800L403 800L403 796C405 796 410 798 410 798C410 798 409 796 410 795C410 794 411 792 411 792L407 794L406 789C408 789 409 789 409 789L408 787L409 781L409 776L410 772L406 771L404 793L397 808L350 807L347 791L351 791L351 788C351 788 346 788 346 787L343 785L335 785L332 782L345 781L335 746L301 755L303 763L298 761L295 763L295 765L291 746L262 752L261 757L224 768L223 770L201 777L201 782L255 767L256 769L229 776" fill="none" fill-opacity="0" stroke="#000000" />
<path d="M230 766L230 770L255 763L255 759L260 758L262 760L292 753L293 757L264 763L275 774L272 778L258 766" fill="none" fill-opacity="0" stroke="#000000" />
<path d="M413 780L412 786L411 789C408 789 408 787 408 787L410 772L413 772L413 780Z" fill="#666666" fill-opacity="1" stroke="#000000" />
<path d="M408 790L408 796L407 799C404 798 406 793 406 793L407 761L404 759L404 753L402 750L399 754L398 759L395 758L394 753L393 747L377 747L366 750L366 754L357 755L357 785L351 786L352 780L349 779L347 771L342 769L341 766L345 768L339 745L340 742L415 720L430 750L424 753L422 758L421 764L421 766L413 766L412 763C410 764 411 761 411 761L408 759" fill="none" fill-opacity="0" stroke="#000000" />
<path d="M413 772L413 767L421 766L424 754L425 752L430 750L451 750L450 746L434 746L419 720L486 702L487 743L484 746L481 748L468 748L468 745L450 744" fill="none" fill-opacity="0" stroke="#000000" />
<path d="M450 744L451 749L481 748L487 743L487 679L485 675L482 673L468 674L468 667L482 667L485 666L487 663" fill="none" fill-opacity="0" stroke="#000000" />
<path d="M441 612L441 604L444 604L445 607C445 607 445 615 445 614L449 613L448 605L453 604L452 613L456 613L457 605L461 605L460 613L464 612L464 606L468 605L468 613L471 613L472 606" fill="none" fill-opacity="0" stroke="#000000" />
<path d="M472 606L441 604" fill="none" fill-opacity="0" stroke="#000000" />
<path d="M486 698L417 716L394 673L403 674L403 670L392 669L385 656L388 654L384 645L380 645L377 646L366 623L359 621L412 718L299 747L298 743L304 741L305 744" fill="none" fill-opacity="0" stroke="#000000" />
<path d="M378 646L392 669L400 670L400 667L395 666L395 668" fill="none" fill-opacity="0" stroke="#000000" />
<path d="M395 669L395 666L400 666L400 669L395 669Z" fill="#666666" fill-opacity="1" stroke="#000000" />
<path d="M526 794L531 788L533 781L532 773L529 767L523 760L513 758L503 759L496 764L493 772L492 779C492 780 493 788 493 788L500 795L507 798L515 799L522 797C522 797 527 794 526 794Z" fill="none" fill-opacity="0" stroke="#000000" />
<path d="M469 808L456 808L455 756L468 756C468 756 469 809 469 808Z" fill="none" fill-opacity="0" stroke="#000000" />
<path d="M478 756L433 756L429 758L427 761L426 765L427 810L430 813L434 815L437 817L489 815L491 812L491 809L488 805L482 798L478 792L476 784L475 779L475 772L477 766L479 760L480 758C480 758 478 757 478 756Z" fill="none" fill-opacity="0" stroke="#000000" />
<path d="M332 808L324 776L321 773L317 770L311 769L281 777L277 783L275 789L281 812L285 817L325 818L329 815C329 815 333 808 332 808Z" fill="none" fill-opacity="0" stroke="#000000" />
<path d="M488 828L486 824L349 826L385 827L385 830L410 830L410 827L427 826L427 828L451 829L451 826" fill="none" fill-opacity="0" stroke="#000000" />
<path d="M333 827L207 829L201 827L196 823L189 815L85 815L82 809L6 808" fill="none" fill-opacity="0" stroke="#000000" />
<path d="M125 815L125 836L134 836L134 827L139 827L140 831L150 831L150 827L161 828L161 833L177 833L177 827L180 827L180 835L183 836L183 816L180 816L179 823L176 823L175 818L169 818L169 815L134 815L134 823L139 823L140 820" fill="none" fill-opacity="0" stroke="#000000" />
<path d="M140 823L139 820L143 820L143 815L146 815L146 819L150 819L150 824L161 824L162 818L166 818L167 815" fill="none" fill-opacity="0" stroke="#000000" />
<path d="M143 823L143 827L146 827L146 823" fill="none" fill-opacity="0" stroke="#000000" />
<path d="M143 823L146 823" fill="none" fill-opacity="0" stroke="#000000" />
<path d="M164 823L164 828L171 828L171 823C171 823 165 824 164 823Z" fill="none" fill-opacity="0" stroke="#000000" />
<path d="M167 826L169 826L169 825L167 825" fill="#333333" fill-opacity="1" stroke="#000000" />
<path d="M156 817L156 836C157 836 157 815 157 815" fill="#333333" fill-opacity="1" stroke="#000000" />
<path d="M116 801L116 806L185 806L188 804L190 801L191 798L191 790L178 790L178 786L191 786" fill="none" fill-opacity="0" stroke="#000000" />
<path d="M191 790L189 355L188 351L187 348L184 345L181 344L94 346L94 342L91 342L90 339C87 338 84 338 84 338L84 335" fill="none" fill-opacity="0" stroke="#000000" />
<path d="M94 341L92 337L87 334L83 334L73 333L69 329L66 324L66 316L80 261L85 256L89 254L110 254L114 250L114 247L112 243L111 239L115 240L118 243L119 247L119 252L126 253L130 254L133 257L137 260L138 265L140 332L140 335L142 337L145 339L148 340L184 340L188 337L190 331L190 313L188 309L167 309L167 305L185 305L188 303L190 301L190 274L188 271L186 268L181 267L168 267" fill="none" fill-opacity="0" stroke="#000000" />
<path d="M181 267L181 270L170 270L170 267L167 267L167 259L175 259L175 250L186 250L188 248L190 245L191 206L193 203L198 203L199 206L199 220L200 223L229 223L229 227L224 227L223 224" fill="none" fill-opacity="0" stroke="#000000" />
<path d="M224 223L223 226L200 227L199 281L200 284L202 286L204 288C207 289 282 288 282 288L286 286L286 232L248 231L247 209L280 209L280 222L249 222" fill="none" fill-opacity="0" stroke="#000000" />
<path d="M276 237L276 247L283 247L283 237C283 237 276 238 276 237Z" fill="none" fill-opacity="0" stroke="#000000" />
<path d="M276 263L283 263L283 268L276 268C276 268 276 262 276 263Z" fill="none" fill-opacity="0" stroke="#000000" />
<path d="M226 266L228 263L228 259L226 256L222 256L219 257L217 260L218 263L220 266C220 266 227 266 226 266Z" fill="none" fill-opacity="0" stroke="#000000" />
<path d="M293 243L292 284L293 286L294 288L357 288L359 286L358 243L357 238C354 237 297 237 297 237L294 239L293 243Z" fill="none" fill-opacity="0" stroke="#000000" />
<path d="M350 297L206 297L202 299L200 301L199 305L199 307L199 334L201 337C201 337 202 338 203 339C204 340 205 341 205 341C206 341 256 342 256 342L256 346L202 347L199 349L198 352L199 388L201 391L204 394L207 396L227 396L228 408C227 408 226 406 226 406C224 405 207 405 207 405L202 407L199 412L199 421L201 426L206 430L297 432L297 427L307 427L308 431L312 428L313 421L322 421L323 428L325 431L349 430L354 428L356 425L356 412L355 409L336 409L336 402L351 402L355 401L356 397L357 357L354 353L335 353L335 347L354 347L357 344L358 304L355 300L350 297Z" fill="none" fill-opacity="0" stroke="#000000" />
<path d="M308 431L298 431" fill="none" fill-opacity="0" stroke="#000000" />
<path d="M223 418L223 408L227 408L227 418C227 418 224 418 223 418Z" fill="none" fill-opacity="0" stroke="#000000" />
<path d="M227 416L223 416L223 411L227 411L227 416Z" fill="#666666" fill-opacity="1" stroke="#000000" />
<path d="M242 448L250 448L250 442L251 439C253 438 307 439 307 439L309 441L310 444L310 447L317 447L318 442L319 439L351 440L354 443C354 443 357 445 357 446L359 485L357 488L353 489L336 489L336 494L354 494C357 495 358 495 358 496C358 497 359 498 359 499C359 500 358 502 358 502L356 506L353 507L301 507L299 504L297 501L297 467L230 467L230 475L286 474L291 477L290 501L288 505C288 505 285 508 284 508C283 508 209 508 209 508L205 506L202 501L199 495L199 447L201 442L204 439L238 438C241 440 242 442 242 442C242 442 242 449 242 448Z" fill="none" fill-opacity="0" stroke="#000000" />
<path d="M351 514L357 517L359 521C359 521 360 525 360 526L359 534L358 536L336 537L336 543L357 543C360 545 361 546 360 547C360 548 362 605 362 605L361 608L360 610L357 612L205 616L202 614L200 611L198 609L198 549L201 546L205 545L206 539L200 538L198 534L198 528L199 522L203 517L207 514L212 513C212 513 351 515 351 514Z" fill="none" fill-opacity="0" stroke="#000000" />
<path d="M260 686L275 685L280 688L291 688L295 685C295 685 305 684 306 685C307 685 338 685 338 685L342 688L347 687L354 680L361 676C362 676 367 677 367 677C367 677 370 679 370 680C370 681 374 684 375 684C376 684 382 686 383 687C384 687 388 691 388 691L392 700L388 704L380 713L372 713C372 713 363 719 361 719C358 719 354 717 354 717L346 712L338 712C338 712 339 716 338 717C337 718 326 718 326 718L323 715L316 714C316 714 314 710 313 710L308 711C308 711 310 708 307 708C304 707 301 707 300 707C299 707 296 706 294 705C292 705 287 705 281 705C276 705 269 704 269 704L259 703L255 703L251 704L245 703L241 704C241 704 238 703 237 702C237 701 233 700 233 699C232 699 229 698 228 698C227 698 224 698 224 698L222 701C222 701 218 701 217 701C216 701 213 701 212 700C211 700 207 695 207 695L209 686L212 681C212 681 218 680 219 680C220 680 232 684 232 684L237 689C237 689 241 692 242 692C244 693 249 693 250 693C251 692 255 690 255 689C255 688 261 687 260 686Z" fill="none" fill-opacity="0" stroke="#009900" />
<path d="M104 322L94 322L90 326L84 329L76 330L72 326L70 320L82 275C86 275 86 272 86 272C82 272 84 264 84 264L89 258L128 258L133 264L132 283L98 284L97 305L102 306L104 300L106 298C110 299 110 306 110 306L116 306L116 298L112 298L112 288L134 287L134 308L135 334L130 340L124 340L111 340L106 338L103 334C103 334 105 321 104 322Z" fill="none" fill-opacity="0" stroke="#000000" />
<path d="M1070 159L1070 91L1051 91L1049 85L946 85L948 107L1050 107L1050 144L947 143L946 165L1051 165L1051 160L1070 159Z" fill="#FFFF99" stroke="#000000" />
<path d="M872 184L864 184L864 213L871 213L871 223L806 226L806 237L815 237L815 240L831 240L831 251L837 251L837 262L831 262L830 267L729 267L728 263L717 264L718 272L709 273L707 265L690 265L687 244L707 242L706 187L719 187L721 243L766 242L765 238L795 238L797 223L806 221L809 189L816 191L817 188L823 188L821 184L845 185L847 180L870 179C870 179 872 183 872 184Z" fill="#FFFF99" fill-opacity="1" stroke="#000000" />
<path d="M745 363L783 363L785 413L693 413L693 382L687 381L687 360L702 361L701 355L707 357L708 347L735 347L735 356L745 356C745 356 745 362 745 363Z" fill="#FFFF99" fill-opacity="1" stroke="#000000" />
<path d="M846 361L847 351L882 349L883 361L846 361Z" fill="#FFFF99" fill-opacity="1" stroke="#000000" />
<path d="M853 380L875 379L877 411L853 413L853 409L819 409L819 401L825 399L825 391L853 392C853 392 853 382 853 380Z" fill="#FFFF99" fill-opacity="1" stroke="#000000" />
<path d="M839 148L833 148C833 145 787 143 787 143L787 132L793 130L793 126L835 128L837 133C837 133 838 148 839 148Z" fill="#CCCCCC" fill-opacity="1" stroke="#000000" />
<path d="M867 84L867 73C865 71 866 47 866 47L857 47L856 43L825 44L825 92L857 93L857 85C857 85 868 84 867 84Z" fill="#CCCCCC" fill-opacity="1" stroke="#000000" />
<path d="M615 203L578 203L579 211L569 212L568 225L595 226L593 243L526 244L523 265L587 267L587 273L636 272C636 275 642 275 642 275L643 261L639 257L641 254L641 247L636 241C631 240 625 240 625 241C624 243 600 243 600 243L601 224L615 224C615 224 615 202 615 203Z" fill="#CCCCCC" fill-opacity="1" stroke="#000000" />
<path d="M533 223L531 236L525 236L522 216L533 215C533 215 531 223 533 223Z" fill="#CCCCCC" fill-opacity="1" stroke="#000000" />
<path d="M574 203L572 188L518 192L519 205C519 205 577 203 574 203Z" fill="#FFFF99" fill-opacity="1" stroke="#000000" />
<path d="M511 219L511 203L338 207L338 227L384 227L384 220L453 221L453 238L396 239L394 269L481 268L480 221C480 221 513 218 511 219Z" fill="#CCCCCC" fill-opacity="1" stroke="#000000" />
<path d="M332 222L331 213L298 213L297 223C297 223 328 221 332 222Z" fill="#CCCCCC" fill-opacity="1" stroke="#000000" />
<path d="M295 251L331 249L333 270L294 269C294 269 296 251 295 251Z" fill="#CCCCCC" fill-opacity="1" stroke="#000000" />
<path d="M339 253L339 283L359 283L358 253C358 253 340 253 339 253Z" fill="#FFFF66" fill-opacity="1" stroke="#000000" />
<path d="M179 211L180 240L174 239L174 257L167 258L166 321L145 321L144 261L137 260L137 231L143 231L141 206L170 203L171 213C171 213 181 211 179 211Z" fill="#FFFF99" fill-opacity="1" stroke="#000000" />
<path d="M128 322L115 321L115 336L127 336L128 322Z" fill="#FFFF99" fill-opacity="1" stroke="#000000" />
<path d="M133 321L84 321L82 286L89 285L87 263L124 261L126 268L132 268L134 283L97 284L96 304L101 306L104 300L106 297L109 300L110 305L117 305L117 298L112 297L111 288L134 287L133 321Z" fill="#CCCCCC" fill-opacity="1" stroke="#000000" />
<path d="M257 337L257 361L303 360L302 379L227 379L227 421L335 420L334 335C334 335 256 337 257 337Z" fill="#CCCCCC" fill-opacity="1" stroke="#000000" />
<path d="M379 323L380 332L384 332L384 355L459 356L459 346L479 347L478 313L467 312L459 311L458 322C458 322 378 324 379 323Z" fill="#CCCCCC" fill-opacity="1" stroke="#000000" />
<path d="M374 328L373 326L374 325L377 324L378 327C378 327 373 329 374 328Z" fill="#666666" fill-opacity="1" stroke="#000000" />
<path d="M462 389L462 413L424 412L424 414L385 414L385 396L413 395L414 390L462 389Z" fill="#CCCCCC" fill-opacity="1" stroke="#000000" />
<path d="M111 248L111 234L98 234L98 248C100 248 100 253 100 253C101 253 101 248 101 248C101 248 112 248 111 248Z" fill="none" fill-opacity="0" stroke="#000000" />
<path d="M99 248L110 239L107 234L98 243L98 239L102 234" fill="none" fill-opacity="0" stroke="#000000" />
<path d="M106 247L110 244L105 240" fill="none" fill-opacity="0" stroke="#000000" />
<path d="M103 244L98 239L98 245L101 248" fill="none" fill-opacity="0" stroke="#000000" />
<path d="M638 374L618 374L618 391L590 391L590 380L586 380L587 333L521 333L521 400L526 400L527 420L549 420L550 406L569 406L569 414L618 413L618 407L638 407C638 407 638 375 638 374Z" fill="#CCCCCC" fill-opacity="1" stroke="#000000" />
<path d="M336 451L317 451L317 447L309 446L309 451L250 452L250 448L242 448L242 451L217 452L217 467L336 467C336 467 335 451 336 451Z" fill="#FFFF99" fill-opacity="1" stroke="#000000" />
<path d="M229 475L259 475L260 505L229 505C229 505 229 476 229 475Z" fill="#CCCCCC" fill-opacity="1" stroke="#000000" />
<path d="M336 484L336 501L297 500L297 485L336 484Z" fill="#CCCCCC" fill-opacity="1" stroke="#000000" />
<path d="M336 525L336 572L218 574L218 526C218 526 336 526 336 525Z" fill="#CCCCCC" fill-opacity="1" stroke="#000000" />
<path d="M378 552L379 574L421 574L421 552L378 552Z" fill="#CCCCCC" fill-opacity="1" stroke="#000000" />
<path d="M439 545L439 575L503 574L503 583L522 582L522 576L529 575L528 572L587 572L587 544L568 543L567 545L560 545L461 546L461 544C461 544 438 545 439 545Z" fill="#CCCCCC" fill-opacity="1" stroke="#000000" />
<path d="M217 533L205 533L205 558L217 559C217 559 217 532 217 533Z" fill="#FFFF99" fill-opacity="1" stroke="#000000" />
<path d="M877 534L877 597L677 597L677 546L700 546L700 533C700 533 877 535 877 534Z" fill="#CCCCCC" fill-opacity="1" stroke="#000000" />
<path d="M877 640L806 640L805 642L796 643L795 641L784 641L783 669L876 670L877 640Z" fill="#CCCCCC" fill-opacity="1" stroke="#000000" />
<path d="M757 648L757 678L742 678L743 675L668 674L668 640L682 640L682 647C682 647 757 649 757 648Z" fill="#CCCCCC" fill-opacity="1" stroke="#000000" />
<path d="M628 649L628 670L605 670L605 678L589 679L589 668L556 667L556 648L587 649L587 640L605 641L605 649C605 649 629 649 628 649Z" fill="#CCCCCC" fill-opacity="1" stroke="#000000" />
<path d="M466 635L467 683L456 683L456 685L403 685L404 663L454 663L454 647L446 647L446 635C446 635 467 634 466 635Z" fill="#CCCCCC" fill-opacity="1" stroke="#000000" />
<path d="M335 649L336 678L319 678L319 649L335 649Z" fill="#CCCCCC" fill-opacity="1" stroke="#000000" />
<path d="M265 633L266 672L215 672L214 635C214 635 265 634 265 633Z" fill="#CCCCCC" fill-opacity="1" stroke="#000000" />
<path d="M245 712L284 712L283 714L299 715L299 720L307 720L307 729C304 729 305 740 305 740L292 745L262 751L232 751L232 764L218 768L217 749L221 750L221 716L244 715C244 715 246 712 245 712Z" fill="#CCCCCC" fill-opacity="1" stroke="#000000" />
<path d="M228 781L253 780L253 782L261 782L261 800L228 800C228 800 228 782 228 781Z" fill="#CCCCCC" fill-opacity="1" stroke="#000000" />
<path d="M178 781L128 781L128 783L110 783L110 780L103 780L103 791L108 791L108 797L113 802L171 801L172 799L177 799C177 799 178 780 178 781Z" fill="#CCCCCC" fill-opacity="1" stroke="#000000" />
<path d="M90 782L60 782L60 784L39 784L39 780L12 779L12 798C14 799 87 799 87 799L90 796L90 782Z" fill="#CCCCCC" fill-opacity="1" stroke="#000000" />
<path d="M89 782L92 782L92 792L95 792L95 784L95 780L92 779L65 779L64 777L13 777L10 779L9 799L11 802L79 801L79 799" fill="none" fill-opacity="0" stroke="#000000" />
<path d="M28 779L92 780" fill="none" fill-opacity="0" stroke="#000000" />
<path d="M669 727L669 740L688 740L688 727C688 727 669 728 669 727Z" fill="#CCCCCC" fill-opacity="1" stroke="#000000" />
<path d="M688 731L702 731L702 737L688 737C688 737 688 730 688 731Z" fill="#CCCCCC" fill-opacity="1" stroke="#000000" />
<path d="M706 731L705 769L768 769L769 732L706 731Z" fill="#CCCCCC" fill-opacity="1" stroke="#000000" />
<path d="M658 754L657 809C658 810 657 755 658 754Z" fill="none" fill-opacity="0" stroke="#000000" />
<path d="M658 788L699 788L699 804L658 804C658 804 658 787 658 788Z" fill="#CCCCCC" fill-opacity="1" stroke="#000000" />
<path d="M699 789L717 789L718 804L699 804C699 804 700 788 699 789Z" fill="#CCCCCC" fill-opacity="1" stroke="#000000" />
<path d="M718 789L736 790L737 804L718 804C718 804 718 788 718 789Z" fill="#CCCCCC" fill-opacity="1" stroke="#000000" />
<path d="M737 790L756 790L756 807C754 806 693 806 693 806L694 803L737 803C737 803 737 791 737 790Z" fill="#CCCCCC" fill-opacity="1" stroke="#000000" />
<path d="M756 796L769 797L769 808L756 809C756 809 757 796 756 796Z" fill="#CCCCCC" fill-opacity="1" stroke="#000000" />
<path d="M872 750L881 750L881 742L872 742C872 742 872 751 872 750Z" fill="#CCCCCC" fill-opacity="1" stroke="#000000" />
<path d="M860 765L853 765L853 779L860 779L860 782L865 782L865 778L882 778L882 764L874 764L874 769L860 769L860 765Z" fill="#CCCCCC" fill-opacity="1" stroke="#000000" />
<path d="M704 754L660 754L659 778L703 778L704 754Z" fill="none" fill-opacity="0" stroke="#000000" />
<path d="M660 757L667 757L669 758L671 759L673 763L673 769L671 772C671 772 670 773 669 774L667 775L666 776L659 776L659 771L661 771L662 770L667 770L667 763L663 763L663 761L660 761" fill="none" fill-opacity="0" stroke="#000000" />
<path d="M665 766L665 767" fill="none" fill-opacity="0" stroke="#000000" />
<path d="M665 766L667 766L667 763L669 763L669 769L667 769" fill="none" fill-opacity="0" stroke="#000000" />
<path d="M669 764L671 764L672 765L672 767L670 769L667 769L667 767L665 766" fill="none" fill-opacity="0" stroke="#000000" />
<path d="M704 757L697 757L694 758L692 760L691 763L691 769L692 771C692 771 693 772 693 773L695 774L697 775L698 776L703 776L703 771C702 771 701 770 701 770L697 770L697 767L699 767L699 765L697 765L695 763L695 769C694 769 693 768 693 768L692 766L693 764" fill="none" fill-opacity="0" stroke="#000000" />
<path d="M698 769L695 769L692 766L692 764L694 763L700 763L700 761L703 761" fill="none" fill-opacity="0" stroke="#000000" />
<path d="M684 769L682 769L680 769L679 767L679 765L680 764L682 763L684 764L685 765L685 767L684 769Z" fill="none" fill-opacity="0" stroke="#000000" />
<path d="M682 763L682 769" fill="none" fill-opacity="0" stroke="#000000" />
<path d="M905 598L901 601" fill="none" fill-opacity="0" stroke="#000000" />
<path d="M902 606L907 601" fill="none" fill-opacity="0" stroke="#000000" />
<path d="M903 610L908 605L908 612L903 615" fill="none" fill-opacity="0" stroke="#000000" />
<path d="M904 621L907 617L908 623L904 626" fill="none" fill-opacity="0" stroke="#000000" />
<path d="M902 634L907 628L907 634L904 636" fill="none" fill-opacity="0" stroke="#000000" />
<path d="M-98 411" fill="none" fill-opacity="0" stroke="#000000" />

</svg>